<svg width="38" height="31" viewBox="0 0 38 31" fill="none" xmlns="http://www.w3.org/2000/svg">
<path d="M37.05 22.2812H36.1V15.2518C36.1 14.1014 35.6428 12.9812 34.8472 12.1699L29.8656 7.09004C29.07 6.27871 27.9656 5.8125 26.8434 5.8125H24.7V3.39062C24.7 1.51973 23.2097 0 21.375 0H7.125C5.29031 0 3.8 1.51973 3.8 3.39062V5.8125H0.475C0.21375 5.8125 0 6.03047 0 6.29688V7.26562C0 7.53203 0.21375 7.75 0.475 7.75H14.725C14.9862 7.75 15.2 7.53203 15.2 7.26562V6.29688C15.2 6.03047 14.9862 5.8125 14.725 5.8125H6.65V3.39062C6.65 3.12422 6.86375 2.90625 7.125 2.90625H21.375C21.6362 2.90625 21.85 3.12422 21.85 3.39062V22.2812H14.4103C13.4247 20.5496 11.6078 19.375 9.5 19.375C8.455 19.375 7.49312 19.6838 6.65 20.1803V17.4375H3.8V25.1875C3.8 28.3965 6.35313 31 9.5 31C12.6469 31 15.2 28.3965 15.2 25.1875H22.8C22.8 28.3965 25.3531 31 28.5 31C31.6469 31 34.2 28.3965 34.2 25.1875H37.05C37.5725 25.1875 38 24.7516 38 24.2188V23.25C38 22.7172 37.5725 22.2812 37.05 22.2812ZM9.5 28.0938C7.92656 28.0938 6.65 26.792 6.65 25.1875C6.65 23.583 7.92656 22.2812 9.5 22.2812C11.0734 22.2812 12.35 23.583 12.35 25.1875C12.35 26.792 11.0734 28.0938 9.5 28.0938ZM24.7 8.71875H26.8434C27.2175 8.71875 27.5856 8.87617 27.8528 9.14258L32.1872 13.5625H24.7V8.71875ZM28.5 28.0938C26.9266 28.0938 25.65 26.792 25.65 25.1875C25.65 23.583 26.9266 22.2812 28.5 22.2812C30.0734 22.2812 31.35 23.583 31.35 25.1875C31.35 26.792 30.0734 28.0938 28.5 28.0938ZM33.25 21.9846C32.2287 20.4164 30.4831 19.375 28.5 19.375C27.0334 19.375 25.7094 19.9562 24.7 20.8826V16.4688H33.25V21.9846ZM15.2 15.0156V14.0469C15.2 13.7805 14.9862 13.5625 14.725 13.5625H0.475C0.21375 13.5625 0 13.7805 0 14.0469V15.0156C0 15.282 0.21375 15.5 0.475 15.5H14.725C14.9862 15.5 15.2 15.282 15.2 15.0156ZM16.625 11.625C16.8862 11.625 17.1 11.407 17.1 11.1406V10.1719C17.1 9.90547 16.8862 9.6875 16.625 9.6875H2.375C2.11375 9.6875 1.9 9.90547 1.9 10.1719V11.1406C1.9 11.407 2.11375 11.625 2.375 11.625H16.625Z" fill="white"/>
</svg>
