<svg width="18" height="18" viewBox="0 0 18 18" fill="none" xmlns="http://www.w3.org/2000/svg">
<path d="M17.0244 11.6015L13.4529 10.0704C13.1322 9.93408 12.7761 9.90526 12.4377 9.98829C12.0993 10.0713 11.797 10.2617 11.5759 10.531L10.4263 11.9372C8.58209 10.9321 7.06635 9.41723 6.0602 7.57364L7.46645 6.42403C7.73571 6.20269 7.92608 5.90013 8.0091 5.56161C8.09211 5.22308 8.06331 4.86678 7.92699 4.54598L6.3984 0.976918C6.25086 0.629583 5.9856 0.34538 5.64925 0.174277C5.31289 0.00317548 4.92699 -0.0438708 4.55938 0.0414105L1.24801 0.804652C0.892701 0.885287 0.575468 1.08457 0.348598 1.36966C0.121728 1.65475 -0.00123998 2.00863 -3.70335e-05 2.37297C-3.70335e-05 11.0305 7.01996 18.0034 15.629 17.9999C15.9933 18.001 16.3471 17.8779 16.6321 17.651C16.917 17.4241 17.1162 17.1068 17.1966 16.7515L17.9595 13.4391C18.0436 13.0718 17.9961 12.6866 17.8251 12.3507C17.6542 12.0149 17.3708 11.7497 17.0244 11.6015ZM15.5622 16.3156C7.91293 16.2804 1.72262 10.0898 1.68746 2.43625L4.87578 1.70149L6.35551 5.15453L3.96172 7.11309C5.59262 10.5936 7.41371 12.4087 10.8875 14.0389L12.8454 11.6444L16.2973 13.1248L15.5622 16.3156Z" fill="#656565"/>
</svg>
