<svg width="19" height="15" viewBox="0 0 19 15" fill="none" xmlns="http://www.w3.org/2000/svg">
<path d="M15.4375 14.625H12.3203C12.0754 14.625 11.875 14.4246 11.875 14.1797V13.2891C11.875 13.0441 12.0754 12.8438 12.3203 12.8438H15.4375C16.4209 12.8438 17.2188 12.0459 17.2188 11.0625V3.9375C17.2188 2.9541 16.4209 2.15625 15.4375 2.15625H12.3203C12.0754 2.15625 11.875 1.95586 11.875 1.71094V0.820312C11.875 0.575391 12.0754 0.375 12.3203 0.375H15.4375C17.4043 0.375 19 1.9707 19 3.9375V11.0625C19 13.0293 17.4043 14.625 15.4375 14.625ZM6.20098 1.09863L5.47363 1.82598C5.29551 2.0041 5.29922 2.28984 5.48105 2.46055L9.67812 6.53516H0.445312C0.200391 6.53516 0 6.73555 0 6.98047V8.01953C0 8.26445 0.200391 8.46484 0.445312 8.46484H9.67812L5.48105 12.5357C5.30293 12.7102 5.29922 12.9959 5.47363 13.1703L6.20098 13.8977C6.37539 14.0721 6.65742 14.0721 6.83184 13.8977L12.9326 7.81172C13.107 7.6373 13.107 7.35527 12.9326 7.18086L6.83184 1.09492C6.65742 0.924219 6.37539 0.924219 6.20098 1.09863V1.09863Z" fill="#656565"/>
</svg>
