<svg width="13" height="13" viewBox="0 0 13 13" fill="none" xmlns="http://www.w3.org/2000/svg">
<path d="M12.2954 8.37883L9.71598 7.27306C9.48442 7.17459 9.2272 7.15378 8.98282 7.21374C8.73844 7.2737 8.52006 7.41121 8.36038 7.60568L7.5301 8.62131C6.19821 7.89539 5.10351 6.80131 4.37684 5.46982L5.39247 4.63955C5.58693 4.47969 5.72442 4.26118 5.78438 4.01669C5.84434 3.7722 5.82353 3.51487 5.72508 3.28318L4.6211 0.705527C4.51455 0.454673 4.32297 0.249415 4.08004 0.125842C3.83712 0.00226797 3.55841 -0.0317099 3.29292 0.0298821L0.901374 0.581112C0.644762 0.639349 0.415649 0.783277 0.251798 0.989175C0.0879474 1.19507 -0.000862482 1.45065 6.31426e-06 1.71379C6.31426e-06 7.96648 5.07001 13.0025 11.2877 12.9999C11.5508 13.0007 11.8063 12.9118 12.0121 12.7479C12.2179 12.584 12.3617 12.3549 12.4198 12.0983L12.9708 9.70599C13.0315 9.4407 12.9972 9.1625 12.8737 8.91995C12.7503 8.6774 12.5456 8.48588 12.2954 8.37883ZM11.2394 11.7835C5.71493 11.7581 1.24415 7.28703 1.21876 1.75949L3.52143 1.22883L4.59012 3.72269L2.86128 5.13721C4.03915 7.65088 5.35438 8.96179 7.86323 10.1392L9.27723 8.4098L11.7703 9.479L11.2394 11.7835Z" fill="#1B1B1B"/>
</svg>
