<svg width="14" height="14" viewBox="0 0 14 14" fill="none" xmlns="http://www.w3.org/2000/svg">
<path d="M12.5344 1.75819C10.9539 0.429286 8.51211 0.628895 7 2.16835C5.48789 0.628895 3.0461 0.426551 1.46563 1.75819C-0.590622 3.48905 -0.289841 6.31093 1.17578 7.80663L5.97188 12.693C6.24532 12.9719 6.61172 13.1277 7 13.1277C7.39102 13.1277 7.75469 12.9746 8.02813 12.6957L12.8242 7.80936C14.2871 6.31366 14.5934 3.49179 12.5344 1.75819ZM11.8891 6.88514L7.09297 11.7715C7.02735 11.8371 6.97266 11.8371 6.90704 11.7715L2.11094 6.88514C1.11289 5.86796 0.91055 3.94296 2.31055 2.76444C3.37422 1.8703 5.01485 2.00429 6.04297 3.05155L7 4.02772L7.95704 3.05155C8.99063 1.99882 10.6313 1.8703 11.6895 2.76171C13.0867 3.94022 12.8789 5.87616 11.8891 6.88514Z" fill="#1B1B1B"/>
</svg>
