<svg width="16" height="14" viewBox="0 0 16 14" fill="none" xmlns="http://www.w3.org/2000/svg">
<path d="M9.55556 3.44531C9.55556 3.08164 9.25833 2.78906 8.88889 2.78906C8.51944 2.78906 8.22222 3.08164 8.22222 3.44531C8.22222 3.80625 8.51944 4.10156 8.88889 4.10156C9.25833 4.10156 9.55556 3.80625 9.55556 3.44531ZM8.88889 9.625C9.02778 9.625 9.16667 9.57031 9.26389 9.4582C10.2444 8.36445 12.8 5.35391 12.8 3.69961C12.8 1.65703 11.05 0 8.88889 0C6.72778 0 4.97778 1.65703 4.97778 3.69961C4.97778 5.35117 7.53333 8.36445 8.51389 9.4582C8.61111 9.57031 8.75 9.625 8.88889 9.625ZM8.88889 1.3125C10.3111 1.3125 11.4667 2.38438 11.4667 3.69961C11.4667 4.28477 10.5833 5.8625 8.88889 7.87227C7.19444 5.8625 6.31111 4.28477 6.31111 3.69961C6.31111 2.38438 7.46667 1.3125 8.88889 1.3125ZM15.5556 4.375C15.5 4.375 15.4444 4.38594 15.3889 4.40781L13.3472 5.15156C13.1194 5.70937 12.7861 6.3 12.3972 6.89609L14.6667 6.07031V11.3477L11.1111 12.5645V8.64883C10.7306 9.12187 10.3361 9.58672 9.93056 10.0379C9.88333 10.0898 9.83056 10.1336 9.77778 10.1773V12.4031L6.22222 11.1672V8.07734C5.71944 7.41836 5.25556 6.74297 4.88889 6.08672V11.0141L4.87222 11.0195L1.33333 12.3047V7.02734L4.76667 5.85156C4.54444 5.43047 4.375 5.02305 4.25833 4.63477L0.558333 5.90625C0.222222 6.0375 0 6.36016 0 6.71836V13.5625C0 13.8141 0.208333 14 0.444444 14C0.5 14 0.555556 13.9891 0.611111 13.9672L5.33333 12.25L10.1111 13.9098C10.4722 14.0273 10.8611 14.0301 11.2222 13.9152L15.4417 12.4688C15.7806 12.3348 16 12.0148 16 11.6566V4.8125C16 4.56094 15.7917 4.375 15.5556 4.375Z" fill="#1B1B1B"/>
</svg>
